<svg width="52" height="65" viewBox="0 0 52 65" fill="none" xmlns="http://www.w3.org/2000/svg">
<path d="M5.38889 1.42999C4.25889 1.20999 2.83889 2.46999 1.12889 5.21999C1.12889 5.79999 1.14889 6.99 1.12889 8.47999C0.838889 36.86 1.12889 48.76 1.12889 60.96C1.12889 61.81 1.88889 62.5 2.81889 62.5H4.60889C5.54889 62.5 6.29889 61.81 6.29889 60.96C9.73889 22.07 9.43889 2.22999 5.38889 1.42999Z" fill="white" stroke="#000A38" stroke-miterlimit="10"/>
<path d="M42.8589 64.33H3.62889C3.44889 64.28 1.34889 63.6 1.12889 62.23C0.95889 61.15 1.95889 60.09 3.62889 59.61H50.2089L42.8589 64.33Z" fill="white" stroke="#000A38" stroke-miterlimit="10"/>
<path d="M51.5189 3.35L51.5189 59.52C51.5189 59.57 51.4789 59.62 51.4189 59.62H3.44889L3.44889 3.35C3.44889 2.05 4.49889 1 5.79889 1L49.1689 1C50.4589 1 51.5189 2.05 51.5189 3.35Z" fill="#000A38"/>
<path d="M44.9789 12.76H9.98889V20.24H44.9789V12.76Z" fill="white" stroke="#000A38" stroke-miterlimit="10"/>
<path d="M10.1589 63.63C9.65889 63.17 9.16889 62.72 8.66889 62.26C8.16889 62.72 7.67889 63.17 7.17889 63.63V56.81H10.1589V63.63Z" fill="#000A38"/>
</svg>
