<svg width="63" height="41" viewBox="0 0 63 41" fill="none" xmlns="http://www.w3.org/2000/svg">
<path d="M53.4612 1H9.53884C4.82297 1 1 4.95333 1 9.83V31.42C1 36.2967 4.82297 40.25 9.53884 40.25H53.4612C58.177 40.25 62 36.2967 62 31.42V9.83C62 4.95333 58.177 1 53.4612 1Z" fill="white" stroke="#000A38" stroke-miterlimit="10"/>
<path d="M1 10.81H61.8936V32.7C61.8936 34.3 60.6365 35.61 59.0796 35.61H3.98811C2.3345 35.61 1 34.22 1 32.52V10.81Z" fill="#000A38" stroke="#000A38" stroke-miterlimit="10"/>
<path d="M31.5 32.63C37.9089 32.63 43.1043 27.2574 43.1043 20.63C43.1043 14.0026 37.9089 8.63 31.5 8.63C25.0911 8.63 19.8957 14.0026 19.8957 20.63C19.8957 27.2574 25.0911 32.63 31.5 32.63Z" fill="white" stroke="#000A38" stroke-miterlimit="10"/>
<path d="M31.5 30.44C36.7393 30.44 40.9865 26.0479 40.9865 20.63C40.9865 15.2121 36.7393 10.82 31.5 10.82C26.2607 10.82 22.0135 15.2121 22.0135 20.63C22.0135 26.0479 26.2607 30.44 31.5 30.44Z" fill="#000A38" stroke="white" stroke-miterlimit="10"/>
<path d="M54.757 4.41H47.9685C47.0231 4.41 46.2568 5.20246 46.2568 6.18V6.85C46.2568 7.82755 47.0231 8.62 47.9685 8.62H54.757C55.7023 8.62 56.4686 7.82755 56.4686 6.85V6.18C56.4686 5.20246 55.7023 4.41 54.757 4.41Z" fill="#000A38" stroke="#000A38" stroke-miterlimit="10"/>
<path d="M54.844 4.79001H50.8889C50.2907 4.79001 49.8058 5.29145 49.8058 5.91001V7.14001C49.8058 7.75857 50.2907 8.26001 50.8889 8.26001H54.844C55.4422 8.26001 55.9271 7.75857 55.9271 7.14001V5.91001C55.9271 5.29145 55.4422 4.79001 54.844 4.79001Z" fill="white"/>
<path d="M43.1043 7.79C43.7826 7.79 44.3324 7.2214 44.3324 6.52C44.3324 5.8186 43.7826 5.25 43.1043 5.25C42.426 5.25 41.8762 5.8186 41.8762 6.52C41.8762 7.2214 42.426 7.79 43.1043 7.79Z" fill="#000A38"/>
<path d="M6.90852 34.31C8.15826 34.31 9.17136 33.2624 9.17136 31.97C9.17136 30.6777 8.15826 29.63 6.90852 29.63C5.65879 29.63 4.64568 30.6777 4.64568 31.97C4.64568 33.2624 5.65879 34.31 6.90852 34.31Z" fill="#000A38" stroke="white" stroke-miterlimit="10"/>
</svg>
