<svg width="63" height="37" viewBox="0 0 63 37" fill="none" xmlns="http://www.w3.org/2000/svg">
<path d="M60.1829 1H2.8171C1.81355 1 1 1.83275 1 2.86V33.77C1 34.7972 1.81355 35.63 2.8171 35.63H60.1829C61.1865 35.63 62 34.7972 62 33.77V2.86C62 1.83275 61.1865 1 60.1829 1Z" fill="#000A38" stroke="#000A38" stroke-miterlimit="10"/>
<path d="M59.3623 1.39H10.828C9.56006 1.39 8.53219 2.44213 8.53219 3.74V33.05C8.53219 34.3479 9.56006 35.4 10.828 35.4H59.3623C60.6302 35.4 61.6581 34.3479 61.6581 33.05V3.74C61.6581 2.44213 60.6302 1.39 59.3623 1.39Z" fill="white" stroke="#000A38" stroke-miterlimit="10"/>
<path d="M5.52322 20.86V15.75C5.52322 15.4131 5.25641 15.14 4.92729 15.14H4.42905C4.09992 15.14 3.83311 15.4131 3.83311 15.75L3.83311 20.86C3.83311 21.1969 4.09992 21.47 4.42905 21.47H4.92729C5.25641 21.47 5.52322 21.1969 5.52322 20.86Z" fill="white"/>
<path d="M55.1305 13.8655C55.3179 13.413 55.1134 12.8915 54.6738 12.7007C54.2341 12.51 53.7258 12.7222 53.5384 13.1748L46.9161 29.1675C46.7287 29.6201 46.9332 30.1416 47.3729 30.3323C47.8125 30.5231 48.3208 30.3108 48.5082 29.8583L55.1305 13.8655Z" fill="#000A38"/>
<path d="M54.7218 11.76L53.5299 13.43C53.4029 13.6 53.4713 13.85 53.6667 13.93L54.5069 14.29C54.7023 14.37 54.9172 14.25 54.9563 14.04L55.308 12C55.3666 11.65 54.927 11.46 54.7218 11.75V11.76Z" fill="#000A38"/>
<path d="M52.2759 19.31L53.1109 17.2937C53.1593 17.1767 53.1059 17.0417 52.9917 16.9922L52.8208 16.918C52.7065 16.8684 52.5746 16.9231 52.5262 17.04L51.6913 19.0564C51.6429 19.1733 51.6962 19.3083 51.8105 19.3579L51.9814 19.432C52.0956 19.4816 52.2275 19.427 52.2759 19.31Z" fill="white"/>
</svg>
