<svg width="49" height="64" viewBox="0 0 49 64" fill="none" xmlns="http://www.w3.org/2000/svg">
<path d="M48.24 60.67L48.24 3.2C48.24 1.52106 46.8789 0.160004 45.2 0.160004L3.04 0.160004C1.36105 0.160004 0 1.52106 0 3.2L0 60.67C0 62.3489 1.36105 63.71 3.04 63.71H45.2C46.8789 63.71 48.24 62.3489 48.24 60.67Z" fill="#000A38"/>
<path d="M8.02 0V19.38" stroke="white" stroke-width="2" stroke-miterlimit="10"/>
<path d="M13.21 0V22.85" stroke="white" stroke-width="2" stroke-miterlimit="10"/>
<path d="M18.4 0V25.94" stroke="white" stroke-width="2" stroke-miterlimit="10"/>
<path d="M23.59 0V29.42" stroke="white" stroke-width="2" stroke-miterlimit="10"/>
<path d="M28.77 0V25.94" stroke="white" stroke-width="2" stroke-miterlimit="10"/>
<path d="M39.15 0V19.38" stroke="white" stroke-width="2" stroke-miterlimit="10"/>
<path d="M33.96 0V22.85" stroke="white" stroke-width="2" stroke-miterlimit="10"/>
<path d="M23.52 55.13C28.9379 55.13 33.33 50.7379 33.33 45.32C33.33 39.9021 28.9379 35.51 23.52 35.51C18.1021 35.51 13.71 39.9021 13.71 45.32C13.71 50.7379 18.1021 55.13 23.52 55.13Z" fill="#000A38" stroke="white" stroke-width="2" stroke-miterlimit="10"/>
</svg>
