<svg width="64" height="56" viewBox="0 0 64 56" fill="none" xmlns="http://www.w3.org/2000/svg">
<path d="M41.7481 41.7481C49.4337 34.0625 49.4337 21.6017 41.7481 13.916C34.0625 6.23042 21.6017 6.23042 13.916 13.916C6.23042 21.6017 6.23042 34.0625 13.916 41.7481C21.6017 49.4337 34.0625 49.4337 41.7481 41.7481Z" fill="white" stroke="#000A38" stroke-width="2" stroke-miterlimit="10"/>
<path d="M9.50516 19.2185L36.8881 45.315" stroke="#000A38" stroke-width="2" stroke-miterlimit="10"/>
<path d="M12.7892 15.2553L41.0191 42.1588" stroke="#000A38" stroke-width="2" stroke-miterlimit="10"/>
<path d="M16.5926 12.0032L44.3911 37.6283" stroke="#000A38" stroke-width="2" stroke-miterlimit="10"/>
<path d="M34.9305 10.1414L25.1822 19.8897" stroke="#000A38" stroke-width="2" stroke-miterlimit="10"/>
<path d="M40.6356 12.8821L29.1614 24.3483" stroke="#000A38" stroke-width="2" stroke-miterlimit="10"/>
<path d="M45.1661 17.2528L34.2992 28.1117" stroke="#000A38" stroke-width="2" stroke-miterlimit="10"/>
<path d="M46.8361 22.6783L37.9269 31.5955" stroke="#000A38" stroke-width="2" stroke-miterlimit="10"/>
<path d="M47.5233 29.1345L41.2588 35.3989" stroke="#000A38" stroke-width="2" stroke-miterlimit="10"/>
<path d="M28.1307 8.44747L21.0193 15.5589" stroke="#000A38" stroke-width="2" stroke-miterlimit="10"/>
<path d="M13.756 23.8769L7.96302 29.6699" stroke="#000A38" stroke-width="2" stroke-miterlimit="10"/>
<path d="M18.5423 27.8321L9.95262 36.4297" stroke="#000A38" stroke-width="2" stroke-miterlimit="10"/>
<path d="M21.8982 31.5955L12.8771 40.6167" stroke="#000A38" stroke-width="2" stroke-miterlimit="10"/>
<path d="M26.4207 36.1101L17.6953 44.8276" stroke="#000A38" stroke-width="2" stroke-miterlimit="10"/>
<path d="M30.4319 39.2343L22.5374 47.1288" stroke="#000A38" stroke-width="2" stroke-miterlimit="10"/>
<path d="M34.2992 42.854L30.0244 47.1288" stroke="#000A38" stroke-width="2" stroke-miterlimit="10"/>
<path d="M62.2335 47.5203H31.4307C32.829 47.0329 34.2353 46.5455 35.6336 46.0581C36.4806 45.5707 37.3276 45.0833 38.1746 44.5959C46.1969 44.7077 54.2192 44.8276 62.2415 44.9394V47.5283L62.2335 47.5203Z" fill="white" stroke="#000A38" stroke-width="2" stroke-miterlimit="10"/>
</svg>
